<svg xmlns="http://www.w3.org/2000/svg" width="1818.91" height="1798.4" viewBox="0 0 1818.91 1798.4" style="fill:#f7f7f7" >
  <title>makotodesigner logo SVG</title>
  <g id="Warstwa_5" data-name="Warstwa 5">
    <path d="M297.79,1542.76s5.17,6.09,14.66,16.51C304.25,1551.44,299,1545.62,297.79,1542.76Z" transform="translate(-98.88 -103.36)"/>
    <path d="M1778.15,1335.05c.17-.34,3-5.94,7.35-14.87A103.41,103.41,0,0,1,1778.15,1335.05Z" transform="translate(-98.88 -103.36)"/>
    <path d="M1916.6,943.42c-11.86-189.89-110-432.79-317.27-617.94S1129.35,97.62,991.68,104s-378.2,64.87-534.86,207.29S227.37,589.75,194.14,706.85,164.6,986.41,179.9,1069.22s59.61,207.82,55.91,209.41-45.89-77.54-62.77-203.08-13.36-19.78-4.44,17.41,13.67,72,9.72,74.37-24.53-83.87-28.48-178.81S157.75,816,162.49,790.71s-4.74-15.82,5.54-52.22S221.84,592.12,255.86,536c6.33-14.25-4.75-7.92-7.91-3.17S181.48,656.21,168,703.68s-26.9,102.07-34.81,141.63-8.7,91-5.54,130.55,13.45,146.37,15,156.66-1.58,31.64-9.49,1.58-21.36-105.23-21.36-137.67-7.12-11.85-8.71,3.57,7.12,215.59,82.29,338.23S390.36,1646,522.1,1719.59c-4.07,8.15-160-112.89-209.59-160.26,43.39,47.6,176.7,185.16,318.78,244.53,173.27,72.39,316.87,143.6,604.08,60.52s363.17-168.52,365.54-218.37-14.24-85.45-71.21-87.82-175.65,62.9-201.75,71.21-78.33,39.16-83.08,43.91,39.16-13.06,47.47-13.06-4.75,9.5-35.6,20.18-51,28.48-92.58,39.16-65.27,16.62-86.63,16.62,8.31,14.24,36.79,7.12,61.71-10.25,27.3,2-73.59,15.81-86.64,11.06-43.91-.69-74.77,2-96.13,11-156.66-10.33-270.2-80.71-464.84-332.31S205.22,928.38,238.45,793.88,306.49,585,354,529.62C400.33,475.53,455.74,421.45,458.32,419c-2.41,2.85-54.2,64.15-74.29,104.34-20.25,40.5-26.7,65.66-26.89,66.44.64-1.34,42.23-87.91,182-201C680,274.85,812.1,217.88,1000,208.38s341.4,42.73,479.07,139.26,240.52,207.29,300.66,378.2,71.2,284.83,39.56,406.68c-31.11,119.76-63.75,218.11-64.85,221.44l68-164.45c-.39,1.81-19.54,88.79-36.92,130.62,13.8-28.37,42.88-90.21,51-123.92-10.15,47.47-26.37,114.72-39.43,138.06,18.6-29.27,76.75-199.38,83.47-252.79-9.49,81.5-50.63,237-119.47,367.52C1850.14,1304.21,1928.47,1133.31,1916.6,943.42ZM622.19,1783.29c2.77-4,15-1.59,45.49,11.47,31.8,13.63,42.33,24.92,40.35,28.48s-24.92-4.75-45.49-14.24S619.42,1787.24,622.19,1783.29ZM354.36,1454.14c5.15,7.12,35.61,42.73,56.18,67s63.69,68.3,73.58,76.21,5.14,17.8,0,13.45-43-43.17-80.7-83.07-50.64-61.32-57-69.24S349.22,1447,354.36,1454.14ZM245.57,1326.36c3.17,6.33,22.55,45.5,42.33,80.31s68.05,89.41,72.4,94.95-1.59,12.26-5.15,9.49-42.39-48.19-74-97.32c-32.05-49.84-36-73.58-40.75-83.47S242.41,1320,245.57,1326.36Zm516.66-1148c-20,5.8-53.37,19.32-120.79,51.69-63.51,30.49-88.62,50.64-120.26,70.68s-21.63,1.06-11.08-5.8,79.65-53.8,122.9-76.48,100.75-42.2,125-48.53S782.27,172.52,762.23,178.32ZM1002,132.82c-11.08-.39-52.14,4.47-109.19,13.06-37.67,5.67-57.76,13.05-81.1,18.59s-17.41-9.49-5.14-14.24,51.43-13.85,83.87-19.38,102.46-6.73,111.56-6.33S1013,133.22,1002,132.82Z" transform="translate(-98.88 -103.36)"/>
  </g>
  <g id="Warstwa_6" data-name="Warstwa 6">
    <path d="M332.21,409.35c34.63-37.78,73.58-79.51,73.58-79.51a218.85,218.85,0,0,0-32,17.5c-9.71,6.41-31.88,22.17-58.82,56.74-35.19,45.17-57.49,95.47-57.49,95.47h0S298.67,446,332.21,409.35Z" transform="translate(-98.88 -103.36)"/>
    <path d="M103,810.49c8.36,2.75,16.78-14.24,25.09-64.08s29.67-103.26,29.67-103.26S117.4,729.79,111.46,755.9,92.15,806.93,103,810.49Z" transform="translate(-98.88 -103.36)"/>
    <path d="M223.42,996.43c1.54,52.22,28.48,176.44,52.22,227.87s42.72,62.5,42.72,62.5-79.91-135.7-77.54-284.24,19-236.37,19-236.37S220.25,889.62,223.42,996.43Z" transform="translate(-98.88 -103.36)"/>
    <path d="M253.48,986.93c0,1,.05,2.1.07,3.17,1.45,67.43.23,197.89,118.61,352.88,0,0-106.81-183.56-106.81-349.72s45.89-284,41.14-296.7-10.28-7.91-14.24,0S253.48,840.21,253.48,986.93Z" transform="translate(-98.88 -103.36)"/>
    <path d="M520.91,1555.81C659.47,1694.37,769,1722,815.24,1733.84s214.81,0,214.81,0-149.53-1.19-166.15-13.06,14.24-9.49,14.24-9.49l-59.34-20.18,61.72,7.12s-208.88-27.3-359.61-178c-100.48-96.13-126.2-152.7-130.55-151.12s10,51.49,81.1,111.56c-3.16,3.56-97.71-87.43-141.62-170.9-14.25-17-7.13,1.18,9.49,29.67S386,1420.91,520.91,1555.81Z" transform="translate(-98.88 -103.36)"/>
    <path d="M1745.7,1424.47c-25.22,37.58-63.29,103.65-63.29,103.65s41.14-42.72,70.41-91.78,30.86-72,30.86-72S1767.82,1391.52,1745.7,1424.47Z" transform="translate(-98.88 -103.36)"/>
    <path d="M1652,528c115.79,150.07,157.9,305.08,170.9,402.33-7.12,1.19-65.28-263.47-182.77-396.39s-230.24-201.76-230.24-201.76S1535.64,377.31,1652,528Z" transform="translate(-98.88 -103.36)"/>
    <path d="M1382,320.74c4,5.84,15.3,7.91,7.39,0S1376.21,312.3,1382,320.74Z" transform="translate(-98.88 -103.36)"/>
    <path d="M350.41,607.55c-4.75,6.72-7.52,15.43-12.27,13.05s2.38-13.45,4.35-19S350,590.93,354,593.7,350.41,607.55,350.41,607.55Z" transform="translate(-98.88 -103.36)"/>
    <path d="M1749.26,1360.38c3.56,1.59-9.49,48.27-16.22,45.1S1745.7,1358.8,1749.26,1360.38Z" transform="translate(-98.88 -103.36)"/>
    <path d="M1729.48,1495.29c2,1.58-2.37,15.82-6.72,14.24S1727.51,1493.7,1729.48,1495.29Z" transform="translate(-98.88 -103.36)"/>
    <path d="M1696.65,1536.82c6.72,2.77.39,18.6-7.12,16.62s.35-19.4,5-16.62" transform="translate(-98.88 -103.36)"/>
  </g>
  <g id="Warstwa_10" data-name="Warstwa 10">
    <path d="M1424.74,565.73h13.83l13-13.84h13.85l3.26,41.53-12.23,13.86h-13.83l-15.49-13.86,3.26,41.55,50.5,96.91-13,13.86,4.08,41.53h13.84l-2.44-27.69h13.84l1.63,13.85-9.78,55.39,18.75,55.38,1.63,13.84-13,13.86h13.84q62.74,245.16,81.45,456.92l1.63,13.85-12.21,13.84,14.66,13.86,5.69,69.22-.8,152.32-162.1,41.53q-4-41.54-31.75-41.53l-26.06-304.62,7.32-69.24-17.1-41.53-9.77-110.77-28.52-166.16h-13.84q5.72,63.52-65.15,207.69-7.34,124.64-44,124.62L1147,1341.12h-13.84q-59.46-35-65.16-110.77H1040.3l3.26,41.55,30.12,27.7-13,13.83,1.63,13.86,15.48,13.83.81,13.86h-13.84q-57.82-30.13-65.16-110.77-82.26-232.12-151.49-304.62L941.73,1535l-20.35,83.08q16,58.1,31.93,116.18l-128.57-3.56a68.76,68.76,0,0,0-50-43.38c-5.3-3.72-11.06-7.49-17.29-11.21a282.12,282.12,0,0,0-26.11-13.85l-35.61-404.18,13-13.84H695l-14.66-13.86,24.44-27.69L675.4,1175l24.44-27.69-29.32-27.7-1.63-13.83,13-13.86-4.08-41.53L651,898,671.32,815H643.63l-4.89-55.38L651,745.74l-14.66-13.86-4.08-41.53q81.45-138.47,140.91-138.46l.81,13.84L813,538q41.58,0,259,429.25h27.7L903.46,621.11l-.82-13.83h13.85l14.67,13.83L1122.55,911.9q51.35-290.77,99.37-290.79,30.94-55.38,105.08-69.22l.8,13.84,39.1-27.7h27.69ZM832.59,759.58l19.55,69.24q165.38,299.73,171,373.84H1037l10.58-41.53Q936.07,888.28,832.59,759.58Zm82.28-166.16H901L888.8,607.28l-32.58-55.39-2.45-27.69h27.69ZM877.4,1590.36l-10.6,41.55,20.37,69.22H901l-9.77-110.77ZM787,870.35l.82,13.85L803.27,898l.82,13.86-12.22,13.83h13.85l-13,13.86,39.9,290.76h13.86l-31-346.15-14.66-13.85Z" transform="translate(-98.88 -103.36)"/>
  </g>
</svg>
